<svg width="25" height="26" viewBox="0 0 25 26" fill="none" xmlns="http://www.w3.org/2000/svg">
  <rect x="0.5" y="1" width="24" height="24" rx="12" stroke="white"/>
  <path d="M14.1167 10.0487C14.4851 9.68037 15.0824 9.68037 15.4508 10.0487C15.8191 10.4171 15.8191 11.0144 15.4508 11.3828L13.8333 13.0002L15.4508 14.6176C15.8191 14.986 15.8191 15.5834 15.4508 15.9517C15.0824 16.3201 14.4851 16.3201 14.1167 15.9517L12.4992 14.3343L10.8818 15.9517C10.5134 16.3201 9.91615 16.3201 9.54777 15.9517C9.17939 15.5834 9.17939 14.986 9.54777 14.6176L11.1652 13.0002L9.54777 11.3828C9.17939 11.0144 9.17939 10.4171 9.54777 10.0487C9.91615 9.68037 10.5134 9.68037 10.8818 10.0487L12.4992 11.6662L14.1167 10.0487Z" fill="white"/>
</svg>
