<svg width="16" height="17" viewBox="0 0 16 17" fill="none" xmlns="http://www.w3.org/2000/svg">
  <g clip-path="url(#clip0_509_256)">
    <path d="M8.00975 1.84626C10.1459 1.84626 10.3989 1.85439 11.2424 1.89287C12.0224 1.92847 12.446 2.0588 12.7279 2.16833C13.1013 2.31345 13.3679 2.48684 13.6478 2.76677C13.9277 3.0467 14.1011 3.31323 14.2462 3.68661C14.3558 3.96854 14.4861 4.39214 14.5217 5.1721C14.5602 6.0157 14.5683 6.2687 14.5683 8.4048C14.5683 10.5409 14.5602 10.7939 14.5217 11.6375C14.4861 12.4175 14.3558 12.8411 14.2462 13.123C14.1011 13.4964 13.9277 13.7629 13.6478 14.0428C13.3679 14.3228 13.1013 14.4962 12.7279 14.6412C12.446 14.7508 12.0224 14.8811 11.2424 14.9167C10.399 14.9552 10.146 14.9633 8.00975 14.9633C5.87352 14.9633 5.62052 14.9552 4.77708 14.9167C3.99709 14.8811 3.57349 14.7508 3.29159 14.6412C2.91818 14.4962 2.65165 14.3228 2.37172 14.0428C2.09179 13.7629 1.9184 13.4964 1.77331 13.123C1.66375 12.8411 1.53342 12.4175 1.49782 11.6375C1.45933 10.7939 1.4512 10.5409 1.4512 8.4048C1.4512 6.2687 1.45933 6.0157 1.49782 5.17213C1.53342 4.39214 1.66375 3.96854 1.77331 3.68661C1.9184 3.31323 2.09179 3.0467 2.37172 2.76677C2.65165 2.48684 2.91818 2.31345 3.29159 2.16833C3.57349 2.0588 3.99709 1.92847 4.77705 1.89287C5.62065 1.85439 5.87365 1.84626 8.00975 1.84626ZM8.00975 0.404785C5.83706 0.404785 5.56466 0.413994 4.71138 0.452927C3.85984 0.491797 3.27832 0.627014 2.76943 0.824791C2.24336 1.02924 1.79722 1.30278 1.35247 1.74753C0.907731 2.19227 0.634185 2.63841 0.429739 3.16448C0.231963 3.67337 0.0967454 4.25489 0.057876 5.10643C0.0189431 5.95968 0.00976562 6.23212 0.00976562 8.4048C0.00976562 10.5775 0.0189431 10.8499 0.057876 11.7032C0.0967454 12.5547 0.231963 13.1362 0.429739 13.6451C0.634185 14.1712 0.907731 14.6173 1.35247 15.0621C1.79722 15.5068 2.24336 15.7804 2.76943 15.9848C3.27832 16.1826 3.85984 16.3178 4.71138 16.3567C5.56466 16.3956 5.83706 16.4048 8.00975 16.4048C10.1824 16.4048 10.4549 16.3956 11.3081 16.3567C12.1597 16.3178 12.7412 16.1826 13.2501 15.9848C13.7761 15.7804 14.2223 15.5068 14.667 15.0621C15.1118 14.6173 15.3853 14.1712 15.5898 13.6451C15.7875 13.1362 15.9228 12.5547 15.9616 11.7032C16.0006 10.8499 16.0098 10.5775 16.0098 8.4048C16.0098 6.23212 16.0006 5.95968 15.9616 5.10643C15.9228 4.25489 15.7875 3.67337 15.5898 3.16448C15.3853 2.63841 15.1118 2.19227 14.667 1.74753C14.2223 1.30278 13.7761 1.02924 13.2501 0.824791C12.7412 0.627014 12.1597 0.491797 11.3081 0.452927C10.4549 0.413994 10.1824 0.404785 8.00975 0.404785ZM8.00975 4.29668C5.74091 4.29668 3.90163 6.13596 3.90163 8.4048C3.90163 10.6736 5.74091 12.5129 8.00975 12.5129C10.2786 12.5129 12.1179 10.6736 12.1179 8.4048C12.1179 6.13596 10.2786 4.29668 8.00975 4.29668ZM8.00975 11.0715C6.537 11.0715 5.34307 9.87755 5.34307 8.4048C5.34307 6.93205 6.537 5.73812 8.00975 5.73812C9.4825 5.73812 10.6764 6.93205 10.6764 8.4048C10.6764 9.87755 9.4825 11.0715 8.00975 11.0715ZM13.2402 4.13437C13.2402 4.66457 12.8104 5.09439 12.2802 5.09439C11.75 5.09439 11.3202 4.66457 11.3202 4.13437C11.3202 3.60418 11.75 3.17439 12.2802 3.17439C12.8104 3.17439 13.2402 3.60418 13.2402 4.13437Z" fill="white"/>
  </g>
  <defs>
    <clipPath id="clip0_509_256">
      <rect width="16" height="16" fill="white" transform="translate(0.00976562 0.404785)"/>
    </clipPath>
  </defs>
</svg>