<svg width="16" height="17" viewBox="0 0 16 17" fill="none" xmlns="http://www.w3.org/2000/svg">
  <path d="M1.99414 0.498535C1.01147 0.498535 0.197266 1.31274 0.197266 2.29541V14.5142C0.197266 15.4968 1.01147 16.311 1.99414 16.311H14.2129C15.1956 16.311 16.0098 15.4968 16.0098 14.5142V2.29541C16.0098 1.31274 15.1956 0.498535 14.2129 0.498535H1.99414ZM1.99414 1.93604H14.2129C14.4178 1.93604 14.5723 2.09045 14.5723 2.29541V14.5142C14.5723 14.7191 14.4178 14.8735 14.2129 14.8735H1.99414C1.78918 14.8735 1.63477 14.7191 1.63477 14.5142V2.29541C1.63477 2.09045 1.78918 1.93604 1.99414 1.93604ZM4.10547 3.17139C3.42322 3.17139 2.87012 3.72449 2.87012 4.40674C2.87012 5.08899 3.42322 5.64209 4.10547 5.64209C4.78772 5.64209 5.34082 5.08899 5.34082 4.40674C5.34082 3.72449 4.78772 3.17139 4.10547 3.17139ZM10.5967 6.45068C9.56628 6.45068 8.88123 7.01501 8.59766 7.55127H8.55273V6.60791H6.53125V13.436H8.64258V10.0669C8.64258 9.17688 8.81946 8.31494 9.92285 8.31494C11.0094 8.31494 11.0234 9.32007 11.0234 10.1118V13.436H13.1348V9.68506C13.1348 7.84888 12.7445 6.45068 10.5967 6.45068ZM3.07227 6.60791V13.436H5.20605V6.60791H3.07227Z" fill="white"/>
</svg>