<svg width="21" height="20" viewBox="0 0 21 20" fill="none" xmlns="http://www.w3.org/2000/svg">
<path fill-rule="evenodd" clip-rule="evenodd" d="M16.2234 1.74874C14.7293 0.75042 12.781 0.75042 11.2869 1.74874C10.9222 1.99241 10.5708 2.34394 10.0304 2.88446L8.00952 4.90539C7.71272 5.20218 7.71272 5.68337 8.00952 5.98017C8.30631 6.27696 8.7875 6.27696 9.0843 5.98017L11.0374 4.02707C11.6683 3.39616 11.9077 3.16198 12.1313 3.01255C13.1143 2.35577 14.3961 2.35577 15.379 3.01255C15.6026 3.16198 15.842 3.39616 16.4729 4.02707C17.1038 4.65798 17.338 4.89738 17.4875 5.12102C18.1442 6.10395 18.1442 7.38573 17.4875 8.36867C17.338 8.5923 17.1038 8.8317 16.4729 9.46261L14.5198 11.4157C14.223 11.7125 14.223 12.1937 14.5198 12.4905C14.8166 12.7873 15.2978 12.7873 15.5946 12.4905L17.6155 10.4696C18.156 9.92924 18.5076 9.5778 18.7513 9.21311C19.7496 7.71902 19.7496 5.77066 18.7513 4.27657C18.5076 3.91188 18.156 3.56044 17.6155 3.02005L17.4799 2.8845C16.9396 2.34396 16.5881 1.99242 16.2234 1.74874ZM12.9905 7.50951C12.6937 7.21271 12.2125 7.21271 11.9157 7.50951L8.00955 11.4157C7.71276 11.7125 7.71276 12.1937 8.00955 12.4905C8.30634 12.7873 8.78754 12.7873 9.08433 12.4905L12.9905 8.58429C13.2873 8.28749 13.2873 7.8063 12.9905 7.50951ZM6.48017 7.50951C6.18337 7.21272 5.70218 7.21272 5.40539 7.50951L3.38449 9.53039C2.84396 10.0708 2.49242 10.4222 2.24874 10.7869C1.25042 12.281 1.25042 14.2293 2.24874 15.7234C2.49242 16.0881 2.84396 16.4396 3.38452 16.9799L3.52003 17.1155C4.06043 17.656 4.41187 18.0076 4.77657 18.2513C6.27066 19.2496 8.21902 19.2496 9.71311 18.2513C10.0778 18.0076 10.4292 17.6561 10.9696 17.1155L12.9905 15.0946C13.2873 14.7978 13.2873 14.3166 12.9905 14.0198C12.6937 13.723 12.2125 13.723 11.9157 14.0198L9.96261 15.9729C9.3317 16.6038 9.0923 16.838 8.86867 16.9875C7.88573 17.6442 6.60395 17.6442 5.62102 16.9875C5.39738 16.838 5.15798 16.6038 4.52707 15.9729C3.89616 15.342 3.66198 15.1026 3.51255 14.879C2.85577 13.8961 2.85577 12.6143 3.51255 11.6313C3.66198 11.4077 3.89616 11.1683 4.52707 10.5374L6.48017 8.58429C6.77696 8.2875 6.77696 7.80631 6.48017 7.50951Z" fill="#180005"/>
</svg>
