<svg xmlns="http://www.w3.org/2000/svg" width="171" height="37" viewBox="0 0 171 37" fill="none">
  <path fill-rule="evenodd" clip-rule="evenodd" d="M10.6573 25.7464L0.852539 5.34961L13.3948 5.4388L13.9314 5.47486L14.4057 5.58184L14.7367 5.84148L15.2647 6.27974L15.7568 6.93268L22.0636 19.1085L28.7238 6.43625L29.2517 5.77873L29.7438 5.50563H30.2672L43.1496 5.46116L33.4521 25.7601L32.8032 25.2502L32.4499 24.8341L32.2263 24.4093L32.0743 23.9217L32.1013 22.9642L32.1323 22.7584L32.3292 22.423L32.5215 21.9937L39.4413 7.90777L30.7278 7.94768L22.0855 24.5025L13.3943 7.93927L4.819 7.91234L12.0656 22.8658L12.1639 23.2195L12.1951 23.6486L12.1728 23.926L12.0788 24.4674L11.73 24.8521L10.9515 25.6572L10.6573 25.7464Z" fill="#84012B" stroke="#84012B" stroke-width="0.666771" stroke-miterlimit="22.9256"/>
  <path fill-rule="evenodd" clip-rule="evenodd" d="M10.2573 12.1619L10.785 11.8309C10.785 11.8309 12.1003 11.4643 13.0395 12.3677C13.979 13.2714 22.0932 29.8395 22.0932 29.8395L31.0034 12.8243L31.2179 12.5468L31.4684 12.2963L31.6653 12.1083L31.9963 11.9203L32.3095 11.8487L32.6492 11.8129H33.1144L33.6601 11.8665L34.1162 12.117L22.1238 35.7218L10.2568 12.1615L10.2573 12.1619Z" fill="#84012B" stroke="#84012B" stroke-width="0.666771" stroke-miterlimit="22.9256"/>
  <path d="M64.2878 4.91553L57.6048 23.954H53.4511L46.8428 4.91553H50.8378L55.1858 18.7009C55.3669 19.2791 55.4948 19.8974 55.5741 20.5506H55.6493C55.6847 20.0695 55.8215 19.4426 56.0643 18.6658L60.4209 4.91553H64.2878ZM77.7379 23.954H66.72V4.91553H77.3097V7.98359H70.406V12.8304H76.8195V15.8848H70.406V20.904H77.7379V23.954ZM93.9379 7.98359H88.4951V23.954H84.7962V7.98359H79.3669V4.91553H93.9379V7.98359ZM107.635 23.954H96.6174V4.91553H107.207V7.98359H100.303V12.8304H106.717V15.8848H100.303V20.904H107.635V23.954ZM126.166 23.954H121.898L118.869 18.9218C118.26 17.9064 117.735 17.2356 117.307 16.9178C116.874 16.5998 116.411 16.4411 115.907 16.4411H114.565V23.954H110.88V4.91553H117.346C121.743 4.91553 123.941 6.63275 123.941 10.0624C123.941 11.325 123.57 12.415 122.833 13.3422C122.096 14.2693 121.045 14.9268 119.686 15.3153V15.3681C120.556 15.6595 121.518 16.6394 122.568 18.3035L126.166 23.9538V23.954ZM114.566 7.78934V13.5589H116.764C117.761 13.5589 118.56 13.2675 119.161 12.6847C119.761 12.1022 120.061 11.3738 120.061 10.504C120.061 8.69423 118.984 7.78934 116.826 7.78934H114.566ZM144.335 23.954H140.314L138.773 19.4031H131.622L130.121 23.954H126.1L133.15 4.91553H137.405L144.335 23.954ZM137.855 16.4808L135.529 9.58566C135.432 9.31208 135.334 8.78246 135.229 8.0098H135.14C135.069 8.58797 134.964 9.10437 134.818 9.55921L132.474 16.4805H137.855V16.4808ZM163.427 23.954H159.569L151.151 11.0603C150.806 10.535 150.524 10.0448 150.299 9.58566H150.246C150.316 10.1905 150.352 11.1704 150.352 12.5345V23.954H146.834V4.91553H150.943L159.065 17.4739C159.48 18.1141 159.781 18.604 159.97 18.9483H160.023C159.953 18.6129 159.922 17.7256 159.922 16.2867V4.91553H163.427V23.954Z" fill="#1A1A1A"/>
  <path d="M54.0363 36.3674V31.709C54.0363 31.3691 54.0572 30.8477 54.0973 30.1469H54.0678C53.9824 30.5758 53.9038 30.8811 53.8324 31.0657L51.8414 36.3676H50.7326L48.7154 31.1114C48.6632 30.9753 48.5848 30.6546 48.4803 30.1471H48.4437C48.4822 30.7015 48.5012 31.3049 48.5012 31.955V36.3676H47.1777V28.8482H49.2717L51.029 33.5328C51.1755 33.9215 51.2714 34.265 51.3202 34.5648H51.355C51.4303 34.2686 51.5365 33.9217 51.6726 33.5222L53.4437 28.8482H55.4766V36.3676H54.0365L54.0363 36.3674ZM61.6168 36.3674H57.2652V28.848H61.4478V30.0594H58.7211V31.9737H61.2542V33.1803H58.7211V35.1627H61.6168V36.3674ZM62.8981 36.3674V28.848H65.3897C68.0536 28.848 69.3838 30.0716 69.3838 32.5161C69.3838 33.6808 69.0088 34.6134 68.2575 35.3144C67.5079 36.0169 66.5422 36.3674 65.3601 36.3674H62.8984H62.8981ZM64.354 30.0596V35.1627H65.2729C66.0799 35.1627 66.7112 34.9273 67.168 34.46C67.6248 33.9912 67.8512 33.3496 67.8512 32.537C67.8512 31.7369 67.6248 31.1229 67.168 30.6976C66.7112 30.2724 66.0835 30.0596 65.2834 30.0596H64.3543H64.354ZM72.1487 28.8482V36.3676H70.6931V28.8482H72.1487ZM80.3151 36.3676H78.7267L78.1183 34.5701H75.2942L74.7014 36.3676H73.113L75.8971 28.8482H77.5778L80.3151 36.3676ZM77.7557 33.4159L76.8369 30.6928C76.7984 30.5846 76.7602 30.3755 76.7184 30.0704H76.6835C76.6556 30.299 76.6138 30.5029 76.5561 30.6825L75.6303 33.4162H77.7555L77.7557 33.4159ZM84.6318 34.5857C85.2264 35.079 85.9098 35.325 86.6789 35.325C87.1426 35.325 87.4879 35.2447 87.716 35.0826C87.9446 34.9206 88.0579 34.7093 88.0579 34.4463C88.0579 34.2196 87.9639 34.0085 87.772 33.8186C87.5818 33.6284 87.1198 33.3755 86.3877 33.0618C85.7653 32.7829 85.3139 32.469 85.0314 32.1204C84.7506 31.7718 84.6114 31.3621 84.6114 30.8912C84.6114 30.2147 84.8727 29.6829 85.3975 29.3014C85.9223 28.9179 86.6092 28.7258 87.4619 28.7258C88.2237 28.7258 88.8252 28.8217 89.2645 29.0119V30.4067C88.7764 30.0735 88.1906 29.9062 87.502 29.9062C87.0974 29.9062 86.7695 29.9829 86.5185 30.1365C86.2676 30.2899 86.1437 30.5007 86.1437 30.7693C86.1437 30.9837 86.2291 31.1792 86.4034 31.3568C86.5777 31.5347 86.984 31.7631 87.6239 32.0456C88.3596 32.3665 88.8704 32.7029 89.1563 33.0551C89.4424 33.407 89.5852 33.8292 89.5852 34.3189C89.5852 35.0269 89.3322 35.569 88.8267 35.9402C88.3213 36.3135 87.6117 36.4998 86.7 36.4998C85.8526 36.4998 85.1624 36.3587 84.6321 36.0762V34.5855L84.6318 34.5857ZM90.4237 32.7048C90.4237 31.5244 90.7636 30.5657 91.4435 29.8298C92.1217 29.0941 93.0249 28.7261 94.1529 28.7261C95.2215 28.7261 96.0829 29.0836 96.7348 29.7966C97.3868 30.5096 97.7131 31.4249 97.7131 32.5425C97.7131 33.7193 97.3767 34.6747 96.7036 35.4053C96.0326 36.1356 95.1417 36.4998 94.0363 36.4998C92.959 36.4998 92.089 36.1443 91.4228 35.4329C90.7569 34.7216 90.4239 33.8114 90.4239 32.7043L90.4237 32.7048ZM91.956 32.6245C91.956 33.3863 92.1445 34.0124 92.521 34.5004C92.8975 34.9887 93.4083 35.2343 94.055 35.2343C94.7262 35.2343 95.2477 35.0007 95.6206 34.5369C95.9939 34.0715 96.1802 33.4404 96.1802 32.6437C96.1802 31.8244 95.999 31.1758 95.6381 30.7034C95.2775 30.2291 94.7666 29.9937 94.1074 29.9937C93.4396 29.9937 92.9131 30.2413 92.5313 30.7363C92.1476 31.2316 91.9558 31.861 91.9558 32.6245H91.956ZM103.32 36.3676H99.0204V28.8482H100.476V35.1629H103.32V36.3676ZM110.114 33.1753C110.114 35.3911 109.089 36.4998 107.038 36.4998C105.067 36.4998 104.082 35.4226 104.082 33.2678V28.8482H105.543V33.2678C105.543 34.5788 106.066 35.2343 107.115 35.2343C108.144 35.2343 108.658 34.5999 108.658 33.3342V28.8484H110.114V33.1755V33.1753ZM116.845 30.0596H114.696V36.3674H113.235V30.0596H111.09V28.8482H116.845V30.0596ZM119.354 28.8482V36.3676H117.898V28.8482H119.354ZM120.67 32.7046C120.67 31.5242 121.01 30.5654 121.69 29.8295C122.368 29.0939 123.272 28.7258 124.4 28.7258C125.468 28.7258 126.33 29.0833 126.982 29.7964C127.634 30.5094 127.96 31.4246 127.96 32.5423C127.96 33.7191 127.623 34.6744 126.95 35.405C126.279 36.1354 125.388 36.4996 124.283 36.4996C123.206 36.4996 122.336 36.144 121.67 35.4327C121.004 34.7213 120.671 33.8111 120.671 32.7041L120.67 32.7046ZM122.203 32.6243C122.203 33.3861 122.391 34.0121 122.768 34.5001C123.144 34.9884 123.655 35.2341 124.302 35.2341C124.973 35.2341 125.494 35.0004 125.867 34.5367C126.241 34.0713 126.427 33.4402 126.427 32.6435C126.427 31.8242 126.246 31.1756 125.885 30.7032C125.524 30.2288 125.013 29.9935 124.354 29.9935C123.686 29.9935 123.16 30.2411 122.778 30.7361C122.394 31.2313 122.203 31.8607 122.203 32.6243H122.203ZM135.821 36.3674H134.297L130.972 31.2749C130.836 31.0674 130.725 30.8739 130.636 30.6926H130.615C130.643 30.9313 130.657 31.3184 130.657 31.8574V36.3674H129.267V28.848H130.891L134.098 33.808C134.262 34.0609 134.381 34.2544 134.456 34.39H134.477C134.449 34.2576 134.437 33.9071 134.437 33.3387V28.8477H135.821V36.3671V36.3674ZM137.266 34.5855C137.86 35.0788 138.544 35.3247 139.313 35.3247C139.777 35.3247 140.122 35.2444 140.35 35.0824C140.579 34.9204 140.692 34.7091 140.692 34.4461C140.692 34.2194 140.598 34.0083 140.406 33.8184C140.216 33.6282 139.754 33.3753 139.022 33.0616C138.399 32.7827 137.948 32.4687 137.665 32.1201C137.385 31.7715 137.245 31.3619 137.245 30.8909C137.245 30.2144 137.507 29.6826 138.032 29.3011C138.556 28.9177 139.243 28.7256 140.096 28.7256C140.858 28.7256 141.459 28.8215 141.899 29.0117V30.4065C141.41 30.0733 140.825 29.906 140.136 29.906C139.731 29.906 139.404 29.9827 139.153 30.1363C138.902 30.2897 138.778 30.5005 138.778 30.769C138.778 30.9835 138.863 31.1789 139.037 31.3566C139.212 31.5345 139.618 31.7629 140.258 32.0454C140.994 32.3663 141.504 32.7026 141.79 33.0548C142.076 33.4068 142.219 33.8289 142.219 34.3186C142.219 35.0266 141.966 35.5688 141.461 35.9399C140.955 36.3133 140.246 36.4996 139.334 36.4996C138.487 36.4996 137.796 36.3585 137.266 36.076V34.5852L137.266 34.5855ZM151.51 36.3674H147.211V28.848H148.666V35.1627H151.51V36.3674ZM156.867 36.3674H152.568V28.848H154.024V35.1627H156.867V36.3674ZM159.381 33.7018V36.3674H157.925V28.848H160.408C162.239 28.848 163.156 29.6341 163.156 31.2032C163.156 31.9636 162.879 32.5735 162.326 33.0373C161.772 33.4996 161.076 33.721 160.239 33.7018H159.381ZM159.381 30.0091V32.5615H160.12C161.126 32.5615 161.628 32.1273 161.628 31.259C161.628 30.4257 161.137 30.0091 160.152 30.0091H159.381Z" fill="#1A1A1A"/>
  <path d="M164.483 4.37463V1.15511H163.336V0.50024H166.41V1.15511H165.268V4.37463H164.483ZM166.906 4.37463V0.5H168.082L168.776 3.14255L169.462 0.5H170.64V4.37463H169.915L169.912 1.32459L169.148 4.37463H168.394L167.634 1.32459L167.631 4.37463H166.906H166.906Z" fill="#1A1A1A"/>
</svg>