<svg width="16" height="17" viewBox="0 0 16 17" fill="none" xmlns="http://www.w3.org/2000/svg">
  <g clip-path="url(#clip0_509_264)">
    <path d="M16.03 3.74465C15.4387 4.00715 14.805 4.1834 14.1387 4.2634C14.8187 3.8559 15.3412 3.2109 15.5862 2.4434C14.9512 2.81965 14.245 3.0934 13.4962 3.2409C12.8962 2.6009 12.0412 2.20215 11.095 2.20215C9.27746 2.20215 7.80371 3.67465 7.80371 5.49215C7.80371 5.74965 7.83371 6.0009 7.88996 6.24215C5.15496 6.10465 2.73121 4.79465 1.10746 2.8034C0.823711 3.2909 0.662461 3.8559 0.662461 4.4584C0.662461 5.59965 1.24246 6.60715 2.12621 7.1984C1.58621 7.1809 1.07871 7.03215 0.634961 6.7859C0.634961 6.79965 0.634961 6.8134 0.634961 6.82715C0.634961 8.42215 1.76996 9.7509 3.27371 10.0546C2.99871 10.1296 2.70746 10.1696 2.40746 10.1696C2.19496 10.1696 1.98871 10.1496 1.78746 10.1096C2.20746 11.4159 3.42246 12.3696 4.86121 12.3959C3.73621 13.2784 2.31746 13.8034 0.774961 13.8034C0.508711 13.8034 0.247461 13.7884 -0.00878906 13.7571C1.44621 14.6921 3.17621 15.2359 5.03496 15.2359C11.0875 15.2359 14.3975 10.2221 14.3975 5.87465C14.3975 5.73215 14.3937 5.5884 14.3887 5.4484C15.0312 4.98465 15.5887 4.40465 16.03 3.74465Z" fill="white"/>
  </g>
  <defs>
    <clipPath id="clip0_509_264">
      <rect width="16" height="16" fill="white" transform="translate(0.00976562 0.404785)"/>
    </clipPath>
  </defs>
</svg>